<?xml version="1.0" encoding="UTF-8"?>
<svg width="200" height="200" viewBox="0 0 200 200" xmlns="http://www.w3.org/2000/svg">
  <!-- Background Circle -->
  <circle cx="100" cy="100" r="90" fill="#27ae60" />
  <circle cx="100" cy="100" r="85" fill="#2ecc71" />

  <!-- Wheat Symbol -->
  <g transform="translate(100, 100) scale(0.9)">
    <!-- Stem -->
    <line x1="0" y1="0" x2="0" y2="60" stroke="#f39c12" stroke-width="6" stroke-linecap="round" />
    
    <!-- Left Wheat branches -->
    <g transform="rotate(-35)">
      <line x1="0" y1="0" x2="-30" y2="-25" stroke="#f39c12" stroke-width="4" stroke-linecap="round" />
      <line x1="-10" y1="-8" x2="-35" y2="-15" stroke="#f39c12" stroke-width="4" stroke-linecap="round" />
      <line x1="-15" y1="-18" x2="-40" y2="-5" stroke="#f39c12" stroke-width="4" stroke-linecap="round" />
    </g>
    
    <!-- Right Wheat branches -->
    <g transform="rotate(35)">
      <line x1="0" y1="0" x2="30" y2="-25" stroke="#f39c12" stroke-width="4" stroke-linecap="round" />
      <line x1="10" y1="-8" x2="35" y2="-15" stroke="#f39c12" stroke-width="4" stroke-linecap="round" />
      <line x1="15" y1="-18" x2="40" y2="-5" stroke="#f39c12" stroke-width="4" stroke-linecap="round" />
    </g>
    
    <!-- Bottom branches -->
    <g transform="translate(0, 15)">
      <!-- Left side -->
      <g transform="rotate(-35)">
        <line x1="0" y1="0" x2="-30" y2="-20" stroke="#f39c12" stroke-width="4" stroke-linecap="round" />
        <line x1="-10" y1="-8" x2="-30" y2="-5" stroke="#f39c12" stroke-width="4" stroke-linecap="round" />
      </g>
      
      <!-- Right side -->
      <g transform="rotate(35)">
        <line x1="0" y1="0" x2="30" y2="-20" stroke="#f39c12" stroke-width="4" stroke-linecap="round" />
        <line x1="10" y1="-8" x2="30" y2="-5" stroke="#f39c12" stroke-width="4" stroke-linecap="round" />
      </g>
    </g>
  </g>
  
  <!-- Text at the bottom -->
  <text x="100" y="150" font-family="Arial, sans-serif" font-size="22" font-weight="bold" text-anchor="middle" fill="white">KrushiMitra</text>
  
  <!-- Est. Date -->
  <text x="100" y="170" font-family="Arial, sans-serif" font-size="10" text-anchor="middle" fill="white">Est. April 9, 2025 | Dreamers</text>
  
  <!-- Tagline -->
  <text x="100" y="185" font-family="Arial, sans-serif" font-size="10" font-weight="bold" text-anchor="middle" fill="#fff3b0">जय जवान जय किसान</text>
</svg> 